<svg fill="none" height="24" viewBox="0 0 24 24" width="24" xmlns="http://www.w3.org/2000/svg"><g fill="#000000"><path d="m16.8 2h-2.6c-3.2 0-5.2 2-5.2 5.2v4.05h6.25c.41 0 .75.34.75.75s-.34.75-.75.75h-6.25v4.05c0 3.2 2 5.2 5.2 5.2h2.59c3.2 0 5.2-2 5.2-5.2v-9.6c.01-3.2-1.99-5.2-5.19-5.2z"/><path d="m4.56141 11.2498 2.07-2.06996c.15-.15.22-.34.22-.53s-.07-.39-.22-.53c-.29-.29-.77-.29-1.06 0l-3.35 3.34996c-.29.29-.29.77 0 1.06l3.35 3.35c.29.29.77.29 1.06 0s.29-.77 0-1.06l-2.07-2.07h4.44v-1.5z"/></g></svg>