<svg class="svg-icon" style="width: 1em; height: 1em;vertical-align: middle;fill: currentColor;overflow: hidden;" viewBox="0 0 1024 1024" version="1.1" xmlns="http://www.w3.org/2000/svg"><path d="M512 0C229.248 0 0 229.248 0 512s229.248 512 512 512 512-229.248 512-512S794.752 0 512 0zM512 960c-247.04 0-448-200.96-448-448s200.96-448 448-448 448 200.96 448 448S759.04 960 512 960z"  /><path d="M647.744 330.944 512 466.752 376.192 330.944 330.944 376.192 466.752 512 330.944 647.744 376.192 692.992 512 557.248 647.744 692.992 692.992 647.744 557.248 512 692.992 376.192Z"  /></svg>